#!OML:ASF X:\für Bonn\!DataBase\2005_08_11_Bastian_Final\c3d\Bastian.ASF
:FULLY-SPECIFIED
:DEGREES
80
root 4.57336 16.1852 -3.54707 718.446 87.435 -352.119
lowerback 50.8247 -9.42085 14.5304
upperback 17.2434 0.276446 6.00268
thorax -0.736333 2.03852 -0.0191971
lowerneck -0.975135 -15.2557 0.879535
upperneck -12.2318 -18.837 20.7161
head -1.4856 -10.2851 6.01015
rclavicle 5.40694e-014 5.08889e-014
rhumerus 24.8361 5.18623 -53.348
rradius 23.3941
rwrist 1.26638
rhand -24.5541 -1.2794
rfingers 7.12502
rthumb 1.94219 -31.2503
lclavicle 5.40694e-014 5.08889e-014
lhumerus -5.68717 -34.6243 82.5442
lradius 40.1148
lwrist 21.6132
lhand -12.3468 -7.99893
lfingers 7.12502
lthumb 13.7228 21.5286
rfemur -34.6268 -5.10657 16.495
rtibia 57.7274
rfoot -16.9757 -4.62039
rtoes -33.2063
lfemur -27.4107 6.80641 -25.7637
ltibia 47.6124
lfoot -1.97822 -6.63885
ltoes 9.66357
81
root 4.59629 16.1383 -3.55704 726.889 87.3487 -344.086
lowerback 51.5609 -9.53991 14.6071
upperback 17.1908 0.386172 5.97749
thorax -0.851481 2.09853 -0.0768581
lowerneck -1.09543 -15.3247 1.13293
upperneck -12.7674 -18.8538 20.8115
head -1.6399 -10.3447 6.02872
rclavicle 5.08889e-014 -2.8625e-014
rhumerus 25.4493 4.50721 -52.9431
rradius 23.3182
rwrist 1.41087
rhand -24.5725 -1.28816
rfingers 7.12502
rthumb 1.9244 -31.2592
lclavicle 5.08889e-014 -2.8625e-014
lhumerus -4.77937 -34.2467 81.3869
lradius 41.708
lwrist 22.2608
lhand -12.5155 -8.3219
lfingers 7.12502
lthumb 13.5602 21.2165
rfemur -35.3951 -4.59519 16.0337
rtibia 57.4251
rfoot -16.96 -4.80205
rtoes -32.9173
lfemur -28.3082 6.95696 -26.2997
ltibia 48.5061
lfoot -2.39838 -6.78419
ltoes 9.62158
82
root 4.61715 16.0874 -3.56612 736.534 87.1835 -334.821
lowerback 52.3035 -9.60698 14.5755
upperback 17.1066 0.499795 5.95
thorax -1.008 2.14868 -0.0973962
lowerneck -1.08562 -15.3992 1.42108
upperneck -13.3276 -18.8689 20.8454
head -1.83437 -10.4117 6.04081
rclavicle 4.77083e-014 1.59028e-015
rhumerus 25.9352 4.02263 -52.4435
rradius 23.3333
rwrist 1.28699
rhand -24.6299 -1.36072
rfingers 7.12502
rthumb 1.869 -31.3323
lclavicle 4.77083e-014 1.59028e-015
lhumerus -3.94154 -33.8408 80.2865
lradius 43.2872
lwrist 22.9177
lhand -12.6078 -8.57512
lfingers 7.12502
lthumb 13.4712 20.9692
rfemur -36.1484 -4.13202 15.4456
rtibia 57.3329
rfoot -16.8676 -4.82366
rtoes -32.2851
lfemur -29.2033 7.07885 -26.9377
ltibia 49.4387
lfoot -2.78891 -6.89524
ltoes 9.89438
83
root 4.63842 16.0334 -3.5741 743.357 86.9376 -328.352
lowerback 53.0054 -9.65253 14.5584
upperback 17.0456 0.635091 5.93991
thorax -1.12827 2.21084 -0.114934
lowerneck -0.943178 -15.4604 1.65086
upperneck -13.9563 -18.843 20.9364
head -2.06317 -10.4698 6.09506
rclavicle -4.77083e-014 -1.90833e-014
rhumerus 26.4374 3.54762 -51.9393
rradius 23.3053
rwrist 1.19045
rhand -24.6826 -1.3923
rfingers 7.12502
rthumb 1.81813 -31.3643
lclavicle -4.77083e-014 -1.90833e-014
lhumerus -3.09326 -33.3881 79.2318
lradius 44.8079
lwrist 23.5005
lhand -12.6504 -8.70925
lfingers 7.12502
lthumb 13.4302 20.8378
rfemur -36.9019 -3.63224 14.9309
rtibia 57.4604
rfoot -16.7258 -4.82287
rtoes -31.4642
lfemur -30.0957 7.26018 -27.4851
ltibia 50.4327
lfoot -3.25254 -7.0453
ltoes 10.001
84
root 4.65924 15.9743 -3.5811 748.787 86.6137 -323.257
lowerback 53.7187 -9.64624 14.5486
upperback 16.9208 0.822353 5.90065
thorax -1.31366 2.28994 -0.189714
lowerneck -0.602622 -15.5421 1.96855
upperneck -14.6174 -18.8169 21.024
head -2.34548 -10.5439 6.16059
rclavicle -3.18055e-015 -1.43125e-014
rhumerus 26.7499 2.98863 -51.5457
rradius 23.2422
rwrist 1.17678
rhand -24.7402 -1.37948
rfingers 7.12502
rthumb 1.76245 -31.3519
lclavicle -3.18055e-015 -1.43125e-014
lhumerus -2.34951 -33.0378 78.2178
lradius 46.3109
lwrist 24.0513
lhand -12.6295 -8.74764
lfingers 7.12502
lthumb 13.4503 20.7981
rfemur -37.7246 -3.19598 14.4127
rtibia 57.8222
rfoot -16.6361 -4.63697
rtoes -30.3406
lfemur -31.0084 7.44915 -28.0389
ltibia 51.4917
lfoot -3.73267 -7.16179
ltoes 10.2957
85
root 4.68026 15.9075 -3.58685 754.041 86.2938 -318.318
lowerback 54.3426 -9.6395 14.4942
upperback 16.8558 0.97351 5.89188
thorax -1.42819 2.35573 -0.203543
lowerneck -0.285773 -15.626 2.26792
upperneck -15.2992 -18.7956 21.0878
head -2.63135 -10.62 6.22289
rclavicle -5.725e-014 -7.79236e-014
rhumerus 27.1362 2.5695 -51.0189
rradius 23.1793
rwrist 1.01497
rhand -24.8281 -1.373
rfingers 7.12502
rthumb 1.67755 -31.3462
lclavicle -5.725e-014 -7.79236e-014
lhumerus -1.58924 -32.6474 77.2235
lradius 47.844
lwrist 24.6191
lhand -12.6608 -8.76215
lfingers 7.12502
lthumb 13.4202 20.7856
rfemur -38.5957 -2.80391 13.8572
rtibia 58.4173
rfoot -16.5835 -4.41393
rtoes -29.1002
lfemur -31.9561 7.62799 -28.623
ltibia 52.6476
lfoot -4.2517 -7.33215
ltoes 10.368
86
root 4.70279 15.8331 -3.59054 758.973 85.99 -313.675
lowerback 54.9342 -9.64689 14.4569
upperback 16.7728 1.11272 5.90312
thorax -1.55682 2.41346 -0.200192
lowerneck 0.14385 -15.7142 2.41872
upperneck -16.0129 -18.7605 21.2672
head -2.91894 -10.6955 6.35002
rclavicle 4.13472e-014 1.51076e-013
rhumerus 27.4733 2.10929 -50.5199
rradius 23.0804
rwrist 0.989784
rhand -24.9452 -1.32107
rfingers 7.12502
rthumb 1.56447 -31.2951
lclavicle 4.13472e-014 1.51076e-013
lhumerus -0.846463 -32.2342 76.332
lradius 49.2711
lwrist 25.0815
lhand -12.7881 -8.79707
lfingers 7.12502
lthumb 13.2974 20.7587
rfemur -39.5044 -2.51313 13.3047
rtibia 59.2242
rfoot -16.5364 -4.12953
rtoes -28.1793
lfemur -32.9188 7.74462 -29.2032
ltibia 53.9002
lfoot -4.84441 -7.48039
ltoes 10.4447
87
root 4.72643 15.7507 -3.59302 763.065 85.6907 -309.928
lowerback 55.4164 -9.65074 14.4344
upperback 16.721 1.23435 5.91629
thorax -1.64048 2.46602 -0.198842
lowerneck 0.455659 -15.7991 2.64201
upperneck -16.675 -18.7414 21.3629
head -3.18823 -10.7699 6.43241
rclavicle -8.26944e-014 -1.20861e-013
rhumerus 27.8683 1.70052 -49.987
rradius 23.0035
rwrist 0.932129
rhand -25.0691 -1.36546
rfingers 7.12502
rthumb 1.44486 -31.3403
lclavicle -8.26944e-014 -1.20861e-013
lhumerus -0.0856924 -31.8367 75.4035
lradius 50.6818
lwrist 25.5234
lhand -13.0101 -8.86889
lfingers 7.12502
lthumb 13.0834 20.7007
rfemur -40.5548 -2.32193 12.8018
rtibia 60.2306
rfoot -16.5011 -3.81155
rtoes -27.2843
lfemur -34.0048 7.85144 -29.7552
ltibia 55.2587
lfoot -5.44769 -7.67698
ltoes 10.7649
88
root 4.75218 15.6622 -3.59321 766.52 85.4082 -306.818
lowerback 55.8461 -9.67055 14.4496
upperback 16.6777 1.34383 5.9218
thorax -1.70574 2.51662 -0.218072
lowerneck 0.787441 -15.8417 3.00739
upperneck -17.4052 -18.6501 21.3565
head -3.51708 -10.8157 6.48141
rclavicle -6.04305e-014 -7.31528e-014
rhumerus 28.2206 1.30717 -49.448
rradius 22.9578
rwrist 0.827507
rhand -25.1671 -1.35929
rfingers 7.12502
rthumb 1.35021 -31.3348
lclavicle -6.04305e-014 -7.31528e-014
lhumerus 0.670401 -31.4736 74.4444
lradius 52.0746
lwrist 25.9829
lhand -13.2984 -8.93731
lfingers 7.12502
lthumb 12.8055 20.6499
rfemur -41.6684 -2.23275 12.3648
rtibia 61.4057
rfoot -16.4478 -3.50407
rtoes -26.6337
lfemur -35.1317 7.91347 -30.2715
ltibia 56.7038
lfoot -6.08648 -7.84876
ltoes 11.0731
89
root 4.77906 15.5683 -3.59412 769.34 85.1635 -304.339
lowerback 56.2515 -9.73969 14.5431
upperback 16.6218 1.43171 5.90808
thorax -1.77281 2.56166 -0.280827
lowerneck 1.0806 -15.8631 3.48411
upperneck -18.0678 -18.5497 21.2056
head -3.84968 -10.848 6.47022
rclavicle 3.18055e-015 2.06736e-014
rhumerus 28.5531 1.01186 -48.8604
rradius 22.8919
rwrist 0.644073
rhand -25.3471 -1.32208
rfingers 7.12502
rthumb 1.17629 -31.2986
lclavicle 3.18055e-015 2.06736e-014
lhumerus 1.38828 -31.0063 73.5716
lradius 53.4162
lwrist 26.4206
lhand -13.5415 -9.06938
lfingers 7.12502
lthumb 12.5712 20.5324
rfemur -42.8171 -2.27776 12.0351
rtibia 62.7122
rfoot -16.4126 -3.36118
rtoes -26.8453
lfemur -36.2895 7.96899 -30.7329
ltibia 58.2259
lfoot -6.77317 -8.05428
ltoes 11.3715
90
root 4.8081 15.4666 -3.59221 772.263 84.865 -301.763
lowerback 56.6135 -9.75058 14.5487
upperback 16.5662 1.5286 5.93196
thorax -1.84806 2.60089 -0.275756
lowerneck 1.45796 -15.8805 3.80133
upperneck -18.7201 -18.4357 21.1522
head -4.1672 -10.8731 6.51338
rclavicle 1.27222e-014 9.54166e-015
rhumerus 28.8024 0.860443 -48.148
rradius 22.9215
rwrist 0.348783
rhand -25.5393 -1.36964
rfingers 7.12502
rthumb 0.990709 -31.3471
lclavicle 1.27222e-014 9.54166e-015
lhumerus 2.01221 -30.615 72.7561
lradius 54.8
lwrist 26.9427
lhand -13.8802 -9.17537
lfingers 7.12502
lthumb 12.2446 20.4462
rfemur -44.0409 -2.34004 11.6532
rtibia 64.1416
rfoot -16.3729 -3.26906
rtoes -26.9199
lfemur -37.4795 8.00783 -31.2541
ltibia 59.8063
lfoot -7.50574 -8.25323
ltoes 11.5492
